#!OML:ASF H:\Punching\Project 1\Capture day 1\Session 1\female.ASF
:FULLY-SPECIFIED
:DEGREES
852
root -1.68214 13.471 5.75576 17.8409 -10.9681 -8.5596
lowerback 8.96434 -4.38616 -6.02701
upperback -2.42444 -6.57029 0.0613378
thorax -6.9021 -2.96031 4.36452
lowerneck 1.27356 14.2369 26.883
upperneck 19.0527 19.7285 -9.36626
head 9.51989 10.5757 -5.22259
rclavicle -1.59028e-015 -1.74931e-014
rhumerus 12.0307 29.0671 -82.331
rradius 133.822
rwrist -33.8358
rhand -18.5163 -1.59242
rfingers 7.12502
rthumb 7.77202 -31.4296
lclavicle -1.59028e-015 -1.74931e-014
lhumerus 38.196 15.075 59.3492
lradius 35.7511
lwrist -9.79942
lhand -10.2888 27.5649
lfingers 7.12502
lthumb 15.7055 56.9476
rfemur -64.9259 7.41046 24.1284
rtibia 65.9868
rfoot -16.0209 2.95512
rtoes 0.392608
lfemur -18.442 3.38508 7.81202
ltibia 66.3453
lfoot -27.7008 1.34888
ltoes -42.8818
853
root -1.67411 13.4372 5.74127 17.8208 -10.7241 -9.12543
lowerback 9.39252 -4.69228 -5.40002
upperback -2.2707 -6.91306 0.229845
thorax -6.99249 -3.14935 4.27444
lowerneck 1.37572 14.2886 26.6817
upperneck 18.6269 19.9021 -9.78997
head 9.40374 10.6097 -5.32787
rclavicle -2.0276e-014 -3.02153e-014
rhumerus 12.3114 29.4586 -82.139
rradius 133.74
rwrist -33.4101
rhand -18.4626 -1.54211
rfingers 7.12502
rthumb 7.8239 -31.3773
lclavicle -2.0276e-014 -3.02153e-014
lhumerus 38.9901 17.3973 60.5592
lradius 34.9294
lwrist -11.0915
lhand -10.2868 26.9791
lfingers 7.12502
lthumb 15.7075 56.3616
rfemur -64.9259 7.36136 24.747
rtibia 66.1294
rfoot -16.0318 2.99824
rtoes 0.550921
lfemur -19.0418 3.3373 8.77303
ltibia 67.4214
lfoot -27.528 0.464974
ltoes -42.8552
854
root -1.66266 13.4058 5.73085 17.8299 -10.5036 -9.60508
lowerback 9.7378 -4.90193 -4.73023
upperback -2.13727 -7.11605 0.348065
thorax -7.08792 -3.27211 4.08677
lowerneck 1.35897 14.2549 26.4232
upperneck 18.2722 19.9265 -10.1906
head 9.29674 10.5722 -5.43617
rclavicle 8.74653e-015 -1.11319e-014
rhumerus 12.5797 29.7949 -81.9527
rradius 133.716
rwrist -33.0676
rhand -18.4187 -1.50543
rfingers 7.12502
rthumb 7.86623 -31.3391
lclavicle 8.74653e-015 -1.11319e-014
lhumerus 39.2772 18.7133 61.3019
lradius 35.6
lwrist -10.3528
lhand -10.3427 26.7568
lfingers 7.12502
lthumb 15.6536 56.1435
rfemur -64.9786 7.26166 25.268
rtibia 66.2876
rfoot -16.0569 3.08292
rtoes 0.666771
lfemur -19.581 3.29205 9.5913
ltibia 68.3367
lfoot -27.4209 -0.356094
ltoes -42.8499
855
root -1.64913 13.3779 5.72431 17.8606 -10.3337 -9.96153
lowerback 9.99816 -5.00594 -4.08311
upperback -2.02716 -7.17749 0.407185
thorax -7.18151 -3.3256 3.82504
lowerneck 1.19856 14.1509 26.1129
upperneck 18.0422 19.811 -10.5186
head 9.21849 10.47 -5.52642
rclavicle 7.95139e-016 -4.13472e-014
rhumerus 12.8367 30.0573 -81.7804
rradius 133.738
rwrist -32.8292
rhand -18.3755 -1.48636
rfingers 7.12502
rthumb 7.90789 -31.3184
lclavicle 7.95139e-016 -4.13472e-014
lhumerus 39.0302 19.0275 61.5353
lradius 37.6294
lwrist -7.61105
lhand -10.5357 26.9133
lfingers 7.12502
lthumb 15.4678 56.3145
rfemur -65.0882 7.14604 25.6442
rtibia 66.4682
rfoot -16.0882 3.18349
rtoes 0.73603
lfemur -20.0318 3.29635 10.2168
ltibia 69.0711
lfoot -27.3795 -1.09367
ltoes -42.8577
856
root -1.63527 13.3544 5.72119 17.9045 -10.214 -10.1867
lowerback 10.1805 -5.00312 -3.49553
upperback -1.94262 -7.10267 0.410958
thorax -7.27035 -3.31111 3.5124
lowerneck 0.912208 13.9803 25.7552
upperneck 17.9465 19.5626 -10.7444
head 9.16766 10.3079 -5.58884
rclavicle -6.48038e-014 -3.18055e-015
rhumerus 13.0738 30.2244 -81.6268
rradius 133.79
rwrist -32.7281
rhand -18.325 -1.4977
rfingers 7.12502
rthumb 7.9567 -31.3279
lclavicle -6.48038e-014 -3.18055e-015
lhumerus 38.3498 18.5354 61.452
lradius 40.8601
lwrist -3.24984
lhand -10.917 27.5093
lfingers 7.12502
lthumb 15.1005 56.9384
rfemur -65.2456 7.04509 25.8604
rtibia 66.6717
rfoot -16.1229 3.26461
rtoes 0.752995
lfemur -20.3809 3.39074 10.6496
ltibia 69.6157
lfoot -27.4044 -1.75125
ltoes -42.8821
857
root -1.62322 13.3358 5.72069 17.9541 -10.1245 -10.2936
lowerback 10.2966 -4.90347 -2.99123
upperback -1.88055 -6.9089 0.375551
thorax -7.34765 -3.23628 3.1804
lowerneck 0.531349 13.7492 25.3545
upperneck 17.9742 19.1963 -10.8552
head 9.13738 10.0942 -5.61895
rclavicle 8.34896e-015 9.54166e-015
rhumerus 13.3078 30.2867 -81.4841
rradius 133.85
rwrist -32.7935
rhand -18.2734 -1.56051
rfingers 7.12502
rthumb 8.00644 -31.3889
lclavicle 8.34896e-015 9.54166e-015
lhumerus 37.3703 17.4912 61.2704
lradius 45.111
lwrist 2.1832
lhand -11.5057 28.6118
lfingers 7.12502
lthumb 14.5333 58.0827
rfemur -65.4341 6.98604 25.9251
rtibia 66.8936
rfoot -16.1605 3.28327
rtoes 0.718551
lfemur -20.6303 3.59605 10.9265
ltibia 69.9706
lfoot -27.4854 -2.35748
ltoes -42.9179
858
root -1.61474 13.3224 5.72204 18.0002 -10.0312 -10.2915
lowerback 10.362 -4.72836 -2.59424
upperback -1.83088 -6.62792 0.319706
thorax -7.40162 -3.11571 2.86652
lowerneck 0.0759878 13.4705 24.9083
upperneck 18.0956 18.735 -10.8511
head 9.11919 9.83934 -5.61346
rclavicle -7.196e-014 -2.06736e-014
rhumerus 13.5782 30.2514 -81.34
rradius 133.888
rwrist -33.0545
rhand -18.2326 -1.68367
rfingers 7.12502
rthumb 8.04585 -31.5105
lclavicle -7.196e-014 -2.06736e-014
lhumerus 36.2196 16.1586 61.1606
lradius 50.1354
lwrist 8.09445
lhand -12.2519 30.1246
lfingers 7.12502
lthumb 13.8142 59.6459
rfemur -65.6369 6.97449 25.8462
rtibia 67.1314
rfoot -16.209 3.20448
rtoes 0.626532
lfemur -20.7985 3.90103 11.0826
ltibia 70.1453
lfoot -27.6126 -2.93952
ltoes -42.9635
859
root -1.61104 13.3141 5.72462 18.0396 -9.89045 -10.1853
lowerback 10.3886 -4.50263 -2.32062
upperback -1.78238 -6.29462 0.258638
thorax -7.42051 -2.96571 2.60136
lowerneck -0.448643 13.1582 24.4218
upperneck 18.2796 18.2012 -10.7471
head 9.10937 9.55295 -5.57412
rclavicle 2.18663e-014 0
rhumerus 13.9376 30.1217 -81.1725
rradius 133.887
rwrist -33.51
rhand -18.2254 -1.87639
rfingers 7.12502
rthumb 8.0528 -31.703
lclavicle 2.18663e-014 0
lhumerus 34.985 14.732 61.1936
lradius 55.6684
lwrist 14.0012
lhand -13.0008 31.9116
lfingers 7.12502
lthumb 13.0924 61.4806
rfemur -65.8466 6.99608 25.6302
rtibia 67.387
rfoot -16.2823 3.00534
rtoes 0.481776
lfemur -20.9236 4.27425 11.1474
ltibia 70.1576
lfoot -27.7645 -3.53051
ltoes -43.001
860
root -1.61274 13.3104 5.72734 18.0768 -9.66642 -9.96659
lowerback 10.3827 -4.2414 -2.17926
upperback -1.73597 -5.93073 0.194995
thorax -7.40757 -2.79613 2.39744
lowerneck -1.01721 12.8089 23.9135
upperneck 18.4898 17.5993 -10.57
head 9.098 9.23727 -5.51337
rclavicle -2.22639e-014 2.22639e-014
rhumerus 14.3933 29.8867 -80.973
rradius 133.831
rwrist -34.1477
rhand -18.2383 -2.10006
rfingers 7.12502
rthumb 8.04037 -31.9271
lclavicle -2.22639e-014 2.22639e-014
lhumerus 33.705 13.3029 61.3844
lradius 61.4827
lwrist 19.5974
lhand -13.6002 33.7506
lfingers 7.12502
lthumb 12.5145 63.3558
rfemur -66.0757 7.02804 25.2694
rtibia 67.6681
rfoot -16.3914 2.67734
rtoes 0.281819
lfemur -21.0591 4.66936 11.1279
ltibia 70.0316
lfoot -27.9137 -4.15736
ltoes -43.0185
861
root -1.61984 13.3106 5.72987 18.1163 -9.32453 -9.619
lowerback 10.3471 -3.96205 -2.17614
upperback -1.69837 -5.56019 0.1331
thorax -7.37149 -2.61793 2.26802
lowerneck -1.60344 12.4197 23.3729
upperneck 18.7008 16.9347 -10.3359
head 9.0746 8.8939 -5.43578
rclavicle -1.66979e-014 2.06736e-014
rhumerus 14.9328 29.5689 -80.7307
rradius 133.73
rwrist -34.9239
rhand -18.2851 -2.34108
rfingers 7.12502
rthumb 7.99518 -32.1699
lclavicle -1.66979e-014 2.06736e-014
lhumerus 32.3684 11.9042 61.7093
lradius 67.4295
lwrist 24.7478
lhand -14.0004 35.4278
lfingers 7.12502
lthumb 12.1287 65.0562
rfemur -66.3349 7.03276 24.7498
rtibia 67.9842
rfoot -16.55 2.22331
rtoes 0.0287066
lfemur -21.2575 5.02273 11.0114
ltibia 69.794
lfoot -28.0378 -4.82702
ltoes -43.0064
862
root -1.63177 13.3144 5.73237 18.1543 -8.82977 -9.12918
lowerback 10.2891 -3.67988 -2.30137
upperback -1.6675 -5.20221 0.0696295
thorax -7.31713 -2.44086 2.20872
lowerneck -2.19998 11.9901 22.8061
upperneck 18.901 16.2118 -10.0638
head 9.0386 8.52438 -5.34789
rclavicle -7.67309e-014 -6.36111e-015
rhumerus 15.5289 29.1816 -80.4468
rradius 133.609
rwrist -35.7899
rhand -18.342 -2.58225
rfingers 7.12502
rthumb 7.94027 -32.4131
lclavicle -7.67309e-014 -6.36111e-015
lhumerus 30.9727 10.5476 62.1634
lradius 73.4227
lwrist 29.3978
lhand -14.1547 36.7743
lfingers 7.12502
lthumb 11.9799 66.4114
rfemur -66.6168 6.96201 24.0658
rtibia 68.3433
rfoot -16.7726 1.65607
rtoes -0.267442
lfemur -21.5559 5.2592 10.7823
ltibia 69.4709
lfoot -28.1208 -5.53297
ltoes -42.9642
863
root -1.64783 13.3207 5.73491 18.1924 -8.16059 -8.52018
lowerback 10.2256 -3.40613 -2.51607
upperback -1.64283 -4.86647 0.0101713
thorax -7.25809 -2.27089 2.20736
lowerneck -2.81278 11.5236 22.2096
upperneck 19.0938 15.4359 -9.75578
head 8.99466 8.13079 -5.24797
rclavicle -2.18663e-014 -2.70347e-014
rhumerus 16.1425 28.7549 -80.1301
rradius 133.5
rwrist -36.6822
rhand -18.3937 -2.79352
rfingers 7.12502
rthumb 7.89034 -32.6263
lclavicle -2.18663e-014 -2.70347e-014
lhumerus 29.5297 9.22741 62.7305
lradius 79.3941
lwrist 33.5399
lhand -14.0649 37.6898
lfingers 7.12502
lthumb 12.0665 67.3219
rfemur -66.9062 6.79262 23.2471
rtibia 68.7451
rfoot -17.0625 0.985368
rtoes -0.605909
lfemur -21.977 5.34275 10.4685
ltibia 69.0906
lfoot -28.1521 -6.27503
ltoes -42.8885
864
root -1.66713 13.3286 5.73718 18.2401 -7.29249 -7.8188
lowerback 10.1709 -3.15149 -2.7692
upperback -1.62916 -4.56069 -0.0398482
thorax -7.21227 -2.11334 2.2439
lowerneck -3.43958 11.021 21.5772
upperneck 19.2776 14.6098 -9.41097
head 8.94334 7.71431 -5.13397
rclavicle -7.95139e-015 -1.90833e-014
rhumerus 16.7392 28.3094 -79.7914
rradius 133.43
rwrist -37.5553
rhand -18.4335 -2.97915
rfingers 7.12502
rthumb 7.85194 -32.8133
lclavicle -7.95139e-015 -1.90833e-014
lhumerus 28.041 7.92949 63.4138
lradius 85.2916
lwrist 37.1507
lhand -13.7179 38.1461
lfingers 7.12502
lthumb 12.4011 67.7582
rfemur -67.1928 6.49705 22.3304
rtibia 69.1849
rfoot -17.4145 0.228884
rtoes -0.98898
lfemur -22.5488 5.24728 10.1022
ltibia 68.6812
lfoot -28.1304 -7.04047
ltoes -42.7892
865
root -1.68855 13.3376 5.73981 18.2945 -6.21404 -7.06499
lowerback 10.141 -2.92139 -2.99712
upperback -1.62237 -4.28418 -0.0759406
thorax -7.18916 -1.97021 2.28818
lowerneck -4.0925 10.4853 20.9046
upperneck 19.4618 13.7361 -9.02337
head 8.89161 7.27622 -5.00162
rclavicle -2.78299e-015 1.74931e-014
rhumerus 17.2895 27.8577 -79.4363
rradius 133.423
rwrist -38.3639
rhand -18.4574 -3.13938
rfingers 7.12502
rthumb 7.82889 -32.9744
lclavicle -2.78299e-015 1.74931e-014
lhumerus 26.5179 6.62956 64.209
lradius 91.0643
lwrist 40.2146
lhand -13.0961 38.1842
lfingers 7.12502
lthumb 13.0006 67.7591
rfemur -67.4408 6.05986 21.3691
rtibia 69.6527
rfoot -17.8254 -0.594321
rtoes -1.39666
lfemur -23.2635 4.96698 9.72729
ltibia 68.2639
lfoot -28.0609 -7.81957
ltoes -42.6738
866
root -1.71139 13.3472 5.74263 18.3619 -4.92311 -6.29847
lowerback 10.1456 -2.71917 -3.14851
upperback -1.62271 -4.03505 -0.0920065
thorax -7.19716 -1.8423 2.31781
lowerneck -4.77518 9.92098 20.192
upperneck 19.648 12.821 -8.59008
head 8.84365 6.81987 -4.8485
rclavicle 3.33958e-014 2.38542e-014
rhumerus 17.7831 27.4039 -79.0712
rradius 133.483
rwrist -39.0911
rhand -18.4744 -3.27542
rfingers 7.12502
rthumb 7.81244 -33.1111
lclavicle 3.33958e-014 2.38542e-014
lhumerus 24.9701 5.29985 65.1011
lradius 96.6525
lwrist 42.6926
lhand -12.1896 37.8648
lfingers 7.12502
lthumb 13.8743 67.382
rfemur -67.6338 5.47902 20.4141
rtibia 70.1385
rfoot -18.2819 -1.46053
rtoes -1.78894
lfemur -24.1205 4.52506 9.39098
ltibia 67.8566
lfoot -27.9454 -8.6147
ltoes -42.5459
